<?xml version="1.0" encoding="UTF-8"?>
<svg xmlns="http://www.w3.org/2000/svg" xmlns:xlink="http://www.w3.org/1999/xlink" viewBox="0 0 115 115">
  <defs>
    <style>
      .cls-1 {
        fill: none;
      }

      .cls-2 {
        fill: #9bcdb4;
      }

      .cls-2, .cls-3, .cls-4, .cls-5, .cls-6, .cls-7, .cls-8, .cls-9 {
        opacity: .5;
      }

      .cls-10 {
        fill: #7796c4;
      }

      .cls-11, .cls-3 {
        fill: #b40f7f;
      }

      .cls-11, .cls-3, .cls-12, .cls-4, .cls-13, .cls-5, .cls-14, .cls-6 {
        mix-blend-mode: multiply;
      }

      .cls-11, .cls-12, .cls-13, .cls-14 {
        opacity: .3;
      }

      .cls-15 {
        isolation: isolate;
      }

      .cls-12, .cls-4 {
        fill: #80498e;
      }

      .cls-13, .cls-5 {
        fill: #81c0a4;
      }

      .cls-14, .cls-6 {
        fill: #1862a2;
      }

      .cls-16, .cls-9 {
        fill: #c83e8e;
      }

      .cls-17 {
        clip-path: url(#clippath-1);
      }

      .cls-7, .cls-18 {
        fill: #4a80b3;
      }

      .cls-19 {
        fill: #fff;
      }

      .cls-8, .cls-20 {
        fill: #916da3;
      }

      .cls-21 {
        clip-path: url(#clippath);
      }
    </style>
    <clipPath id="clippath">
      <circle class="cls-1" cx="57.5" cy="57.5" r="57.5"/>
    </clipPath>
    <clipPath id="clippath-1">
      <circle class="cls-1" cx="39.94" cy="57.74" r="75.05"/>
    </clipPath>
  </defs>
  <g class="cls-15">
    <g id="Capa_1" data-name="Capa 1">
      <g>
        <g class="cls-21">
          <g>
            <g class="cls-17">
              <g>
                <circle class="cls-16" cx="39.94" cy="57.74" r="75.05"/>
                <circle class="cls-20" cx="39.94" cy="57.74" r="50.03"/>
                <circle class="cls-18" cx="39.94" cy="57.74" r="25.02"/>
                <circle class="cls-2" cx="115" cy="-17.31" r="75.05"/>
                <circle class="cls-7" cx="115" cy="-17.31" r="50.03"/>
                <circle class="cls-1" cx="39.94" cy="57.74" r="75.05"/>
                <g>
                  <circle class="cls-9" cx="-13.15" cy="110.77" r="75.05"/>
                  <circle class="cls-8" cx="-13.15" cy="110.77" r="50.03"/>
                  <circle class="cls-7" cx="-13.15" cy="110.77" r="25.02"/>
                </g>
                <circle class="cls-10" cx="53.88" cy="43.81" r="19.64"/>
              </g>
            </g>
            <path class="cls-14" d="M22.26,75.43l-17.69,17.69-17.69,17.69c14.65,14.65,33.86,21.98,53.07,21.98v-25.02s0-25.02,0-25.02v-25.02s-17.69,17.69-17.69,17.69Z"/>
            <path class="cls-6" d="M39.95,82.76v25.02s0,25.02,0,25.02c19.21,0,38.41-7.33,53.07-21.98l-17.69-17.69-17.69-17.69-17.69-17.69v25.02Z"/>
            <path class="cls-13" d="M-35.1,57.74H-10.08s25.02,0,25.02,0h25.02s-17.69-17.69-17.69-17.69L4.57,22.36-13.12,4.67c-14.65,14.65-21.98,33.86-21.98,53.07Z"/>
            <path class="cls-4" d="M64.97,57.74h25.02s25.02,0,25.02,0c0-19.21-7.33-38.41-21.98-53.07l-17.69,17.69-17.69,17.69-17.69,17.69h25.02Z"/>
            <path class="cls-12" d="M89.98,57.74h-25.02s-25.02,0-25.02,0l17.69,17.69,17.69,17.69,17.69,17.69c14.66-14.66,21.98-33.86,21.98-53.07h-25.02Z"/>
            <path class="cls-5" d="M-13.12,110.81l17.69-17.69,17.69-17.69,17.69-17.69H14.93s-25.02,0-25.02,0h-25.02c0,19.21,7.33,38.41,21.98,53.07Z"/>
            <path class="cls-11" d="M39.95-17.31V7.71s0,25.02,0,25.02v25.02s17.69-17.69,17.69-17.69l17.69-17.69,17.69-17.69c-14.65-14.65-33.86-21.98-53.07-21.98Z"/>
            <path class="cls-3" d="M4.57,22.36l17.69,17.69,17.69,17.69v-25.02s0-25.02,0-25.02v-25.02c-19.21,0-38.41,7.33-53.07,21.98L4.57,22.36Z"/>
          </g>
        </g>
        <g>
          <path class="cls-19" d="M35.3,89.43c-.38-.54-.75-1.07-1.12-1.56-5.31-7.78-8.5-17.63-8.5-28.34,0-25.09,17.45-45.5,38.9-45.51,0,0,0,0,.01,0,7.08,0,13.84,1.55,19.7,5.48.43.29.3.48-.21.3-6.91-2.52-16.13-1.89-22.74,2.19-7.98,4.93-12.41,11.91-13.94,20.35-1.03,5.67-.07,11.19.64,15.23.49,2.8.88,5.02.41,6.08-1.05,2.37-2.89,4.36-4.66,6.28-2.84,3.09-5.79,6.28-5.79,11.18,0,7.27,1.68,12.61,5.41,16.59-3.02-2.3-5.74-5.09-8.1-8.26Z"/>
          <path class="cls-19" d="M22.56,76.93c-3.48-2.48-6.49-4.62-8.73-9.09-2.17-4.33-2.89-12.82,6.02-28.63,4.94-8.77,13.95-17.64,26.37-22.15,1.38-.5,1.6-.2.32.49-13.61,7.32-23.08,23.38-23.08,41.98,0,8.32,1.9,16.14,5.21,22.89.28.57-.04.69-.44.24-2.18-2.46-3.48-4.15-5.68-5.72Z"/>
          <path class="cls-19" d="M90.74,25c3.06,2.73,4.68,6.36,6.78,10.26-1.26.61-6.36,2.62-12.33-1.52-1.63-1.13-3.29-2.64-5.04-4.23-4.11-3.75-6.86-6.36-12.03-7.59-1.08-.26-2.15-.22-2.68-.14,8.59-3.64,20.12-1.39,25.28,3.21Z"/>
          <path class="cls-19" d="M63.41,104.29c-.81,0-1.62-.03-2.42-.09,8.72-.77,17.25-6.18,21.83-13.18,3.19-4.87,4.68-9.73,5.88-13.64,1.26-4.12,2.18-7.11,4.39-7.85,3.79-1.28,7.54,2.56,8.47,3.61-8.27,19.52-22.51,31.16-38.15,31.16Z"/>
        </g>
      </g>
    </g>
  </g>
</svg>