<svg width="19" height="19" viewBox="0 0 19 19" fill="none" xmlns="http://www.w3.org/2000/svg">
<path d="M11.2812 3.95825V1.58325C11.2812 1.25533 11.5471 0.989502 11.875 0.989502C12.2029 0.989502 12.4688 1.25533 12.4688 1.58325V3.95825C12.4688 4.22071 12.5731 4.47234 12.7587 4.65792C12.9443 4.8435 13.1959 4.94784 13.4583 4.94784H15.8333C16.1613 4.94784 16.4271 5.21367 16.4271 5.54159C16.4271 5.8695 16.1613 6.13534 15.8333 6.13534H13.4583C12.8809 6.13534 12.3273 5.9058 11.9191 5.49752C11.5108 5.08924 11.2812 4.53565 11.2812 3.95825Z" fill="#3A4450"/>
<path d="M4.94788 12.6666V3.16659C4.94788 2.58919 5.17741 2.0356 5.58569 1.62732C5.99398 1.21904 6.54756 0.989502 7.12496 0.989502H12.6666C12.8241 0.989502 12.9751 1.0521 13.0864 1.16345L16.2531 4.33012C16.3644 4.44147 16.427 4.59245 16.427 4.74992V12.6666C16.427 13.244 16.1975 13.7976 15.7892 14.2059C15.3809 14.6141 14.8274 14.8437 14.25 14.8437H7.12496C6.54756 14.8437 5.99398 14.6141 5.58569 14.2059C5.17741 13.7976 4.94788 13.244 4.94788 12.6666ZM6.13538 12.6666C6.13538 12.929 6.23971 13.1807 6.42529 13.3663C6.61088 13.5518 6.86251 13.6562 7.12496 13.6562H14.25C14.5124 13.6562 14.764 13.5518 14.9496 13.3663C15.1352 13.1807 15.2395 12.929 15.2395 12.6666V4.99577L12.4208 2.177H7.12496C6.86251 2.177 6.61088 2.28134 6.42529 2.46692C6.23971 2.6525 6.13538 2.90413 6.13538 3.16659V12.6666Z" fill="#3A4450"/>
<path d="M1.78125 16.1498V6.0166C1.78125 5.68868 2.04708 5.42285 2.375 5.42285C2.70292 5.42285 2.96875 5.68868 2.96875 6.0166V16.1498C2.96875 16.3282 3.0397 16.4998 3.16589 16.626C3.292 16.752 3.46307 16.8231 3.64136 16.8232H11.4003C11.7281 16.8233 11.9941 17.0891 11.9941 17.4169C11.9939 17.7446 11.728 18.0105 11.4003 18.0107H3.64136C3.14813 18.0106 2.6751 17.8143 2.32629 17.4656C1.9774 17.1167 1.78125 16.6432 1.78125 16.1498Z" fill="#3A4450"/>
</svg>
