<svg width="19" height="19" viewBox="0 0 19 19" fill="none" xmlns="http://www.w3.org/2000/svg">
<path d="M8.0293 2.28613C8.66419 1.12249 10.3358 1.12249 10.9707 2.28613L12.8252 5.68652C12.8719 5.77221 12.9548 5.83262 13.0508 5.85059L16.8574 6.56348C18.1603 6.8078 18.6764 8.397 17.7656 9.36035L15.1055 12.1748C15.0385 12.2457 15.0061 12.3428 15.0186 12.4395L15.5176 16.2803C15.6882 17.5951 14.3355 18.5774 13.1377 18.0088L9.63965 16.3486C9.55145 16.3068 9.44855 16.3068 9.36035 16.3486L5.8623 18.0088C4.66452 18.5774 3.31181 17.5951 3.48242 16.2803L3.98145 12.4395C3.99387 12.3428 3.96151 12.2457 3.89453 12.1748L1.23438 9.36035C0.323593 8.397 0.839675 6.8078 2.14258 6.56348L5.94922 5.85059C6.04516 5.83262 6.12806 5.77221 6.1748 5.68652L8.0293 2.28613Z" stroke="#898F96" stroke-width="1.35"/>
</svg>
