<svg width="24" height="24" viewBox="0 0 24 24" fill="none" xmlns="http://www.w3.org/2000/svg">
<path d="M3.25 8V4C3.25 3.27065 3.53994 2.57139 4.05566 2.05566C4.57139 1.53994 5.27065 1.25 6 1.25H15C15.1989 1.25 15.3896 1.32907 15.5303 1.46973L20.5303 6.46973C20.6709 6.61038 20.75 6.80109 20.75 7V20C20.75 20.7293 20.4601 21.4286 19.9443 21.9443C19.4286 22.4601 18.7293 22.75 18 22.75H4C3.58579 22.75 3.25 22.4142 3.25 22C3.25 21.5858 3.58579 21.25 4 21.25H18C18.3315 21.25 18.6494 21.1182 18.8838 20.8838C19.1182 20.6494 19.25 20.3315 19.25 20V7.31055L14.6895 2.75H6C5.66848 2.75 5.35063 2.88179 5.11621 3.11621C4.88179 3.35063 4.75 3.66848 4.75 4V8C4.75 8.41421 4.41421 8.75 4 8.75C3.58579 8.75 3.25 8.41421 3.25 8Z" fill="#898F96"/>
<path d="M13.25 6V2C13.25 1.58579 13.5858 1.25 14 1.25C14.4142 1.25 14.75 1.58579 14.75 2V6C14.75 6.33152 14.8818 6.64937 15.1162 6.88379C15.3506 7.11821 15.6685 7.25 16 7.25H20C20.4142 7.25 20.75 7.58579 20.75 8C20.75 8.41421 20.4142 8.75 20 8.75H16C15.2707 8.75 14.5714 8.46006 14.0557 7.94434C13.5399 7.42861 13.25 6.72935 13.25 6Z" fill="#898F96"/>
<path d="M12 14.25C12.4142 14.25 12.75 14.5858 12.75 15C12.75 15.4142 12.4142 15.75 12 15.75H2C1.58579 15.75 1.25 15.4142 1.25 15C1.25 14.5858 1.58579 14.25 2 14.25H12Z" fill="#898F96"/>
<path d="M8.46967 11.4697C8.76256 11.1768 9.23732 11.1768 9.53022 11.4697L12.5302 14.4697C12.8231 14.7626 12.8231 15.2373 12.5302 15.5302L9.53022 18.5302C9.23732 18.8231 8.76256 18.8231 8.46967 18.5302C8.17678 18.2373 8.17678 17.7626 8.46967 17.4697L10.9394 14.9999L8.46967 12.5302C8.17678 12.2373 8.17678 11.7626 8.46967 11.4697Z" fill="#898F96"/>
</svg>
