<svg xmlns="http://www.w3.org/2000/svg" width="20" height="20" fill="none">
  <path fill="#3A4450" d="M17.708 10a7.708 7.708 0 1 0-15.416 0 7.708 7.708 0 0 0 15.416 0Zm1.25 0a8.958 8.958 0 1 1-17.916 0 8.958 8.958 0 0 1 17.916 0Z"/>
  <path fill="#3A4450" d="M8.35 5.635a3.126 3.126 0 0 1 4.708 2.699l-.01.214c-.097 1.048-.897 1.767-1.518 2.18a6.495 6.495 0 0 1-1.359.684l-.027.01-.009.002-.002.001-.001.001a.626.626 0 0 1-.396-1.186h-.001l.017-.005.067-.025a5.252 5.252 0 0 0 1.018-.522c.587-.39.971-.853.971-1.354v-.002a1.875 1.875 0 0 0-3.644-.625.625.625 0 1 1-1.178-.414A3.125 3.125 0 0 1 8.35 5.635Zm1.658 7.907a.625.625 0 0 1 0 1.25H10a.625.625 0 1 1 0-1.25h.008Z"/>
</svg>
