<svg width="14" height="18" viewBox="0 0 14 18" fill="none" xmlns="http://www.w3.org/2000/svg">
<path d="M11.0222 1.84518C9.64126 0.613729 7.78722 0.0294219 5.93029 0.24321C3.04632 0.574005 0.662863 2.89751 0.263454 5.76632C-0.0406165 7.94321 0.753146 10.1071 2.38617 11.5538C3.29044 12.3548 3.80902 13.5219 3.80902 14.7541V15.0055C3.80902 16.3994 4.94297 17.5334 6.33693 17.5334H7.05918C8.45314 17.5334 9.58709 16.3994 9.58709 15.0055V14.7505C9.58709 13.5328 10.1302 12.3605 11.1168 11.4491C12.4393 10.2255 13.1984 8.49429 13.1984 6.69948C13.1984 4.84833 12.4053 3.0788 11.0222 1.84518ZM8.86483 15.0047C8.86483 16 8.05518 16.8104 7.05918 16.8104H6.33693C5.34093 16.8104 4.53128 16 4.53128 15.0047V14.7534C4.53128 14.4724 4.50745 14.1936 4.46267 13.9213H8.93706C8.88939 14.1936 8.86483 14.4703 8.86483 14.7498V15.0047ZM10.6264 10.9182C9.91355 11.5769 9.40219 12.3577 9.11907 13.1991H7.05846V7.75181C8.0819 7.57919 8.86411 6.6872 8.86411 5.61537C8.86411 5.41603 8.70232 5.25424 8.50298 5.25424C8.30364 5.25424 8.14185 5.41603 8.14185 5.61537C8.14185 6.41202 7.49398 7.05989 6.69733 7.05989C5.90068 7.05989 5.25282 6.41202 5.25282 5.61537C5.25282 5.41603 5.09103 5.25424 4.89169 5.25424C4.69234 5.25424 4.53056 5.41603 4.53056 5.61537C4.53056 6.6872 5.31276 7.57919 6.3362 7.75181V13.1991H4.28716C4.01703 12.3605 3.53023 11.6029 2.86503 11.0128C1.41329 9.72719 0.708365 7.80309 0.97849 5.86599C1.33312 3.31786 3.45006 1.25509 6.01191 0.960413C6.2452 0.93369 6.47704 0.920689 6.70672 0.920689C8.12813 0.920689 9.46936 1.42844 10.5426 2.38471C11.7712 3.4811 12.4768 5.05345 12.4768 6.69876C12.4768 8.31662 11.8196 9.8153 10.6264 10.9182Z" fill="#3A4450"/>
<path d="M12.9984 6.69989C12.9984 4.90587 12.2296 3.19051 10.889 1.99481C9.55113 0.801749 7.7542 0.234846 5.95349 0.442077C3.15995 0.762498 0.848194 3.01552 0.461304 5.79364C0.166419 7.90476 0.936491 10.0021 2.51892 11.404C3.46703 12.2438 4.00916 13.4665 4.00916 14.7546V15.0056C4.00921 16.289 5.05381 17.3337 6.33728 17.3337H7.05896C8.34243 17.3337 9.38703 16.289 9.38709 15.0056V14.7507C9.38709 13.4712 9.95813 12.2474 10.9808 11.3024C12.2625 10.1167 12.9983 8.43853 12.9984 6.69989ZM8.66443 14.7497C8.66443 14.5385 8.67913 14.3291 8.70545 14.1218H4.69275C4.71777 14.3298 4.73084 14.5411 4.73084 14.7536V15.0046C4.73084 15.8894 5.4518 16.61 6.33728 16.61H7.05896C7.94445 16.61 8.66443 15.8894 8.66443 15.0046V14.7497ZM5.0531 5.61493C5.05286 5.52634 4.98058 5.45395 4.89197 5.4538C4.80323 5.4538 4.73107 5.52624 4.73084 5.61493C4.73084 6.58731 5.44051 7.39769 6.36951 7.55438L6.5365 7.5827V13.3991H4.14099L4.09705 13.2604C3.83769 12.4553 3.37035 11.7285 2.73279 11.1628C1.23038 9.83229 0.501424 7.84123 0.78064 5.83856C1.14787 3.1999 3.33671 1.06663 5.98865 0.761413C6.22927 0.733869 6.46945 0.720409 6.70642 0.720397C8.17689 0.720397 9.56624 1.24614 10.6761 2.23505C11.9471 3.36929 12.6771 4.99648 12.6771 6.69891C12.6771 8.37267 11.997 9.92456 10.7631 11.0651L10.7533 11.0739C10.0683 11.7095 9.57952 12.4586 9.30896 13.2624L9.26306 13.3991H6.85877V7.5827L7.02478 7.55438C7.95378 7.39769 8.66443 6.58731 8.66443 5.61493C8.66419 5.52635 8.59189 5.45397 8.5033 5.4538C8.41456 5.4538 8.3424 5.52624 8.34216 5.61493C8.34216 6.52194 7.6046 7.2593 6.69763 7.25946C5.79052 7.25946 5.0531 6.52204 5.0531 5.61493ZM9.06482 15.0046C9.06482 16.1103 8.16546 17.0104 7.05896 17.0104H6.33728C5.23078 17.0104 4.33142 16.1103 4.33142 15.0046V14.7536C4.33142 14.4839 4.3081 14.2158 4.26502 13.9538L4.22693 13.7214H9.17517L9.13416 13.9557C9.08845 14.2168 9.06483 14.482 9.06482 14.7497V15.0046ZM13.3988 6.69989C13.3987 8.55056 12.6154 10.3343 11.2523 11.5954C10.3022 12.4733 9.78748 13.595 9.78748 14.7507V15.0056C9.78742 16.5099 8.56334 17.7331 7.05896 17.7331H6.33728C4.8329 17.7331 3.60882 16.5099 3.60877 15.0056V14.7546C3.60877 13.5783 3.11369 12.4659 2.2533 11.7038C0.569733 10.2123 -0.24737 7.98152 0.0657964 5.73895C0.477817 2.77955 2.93325 0.385776 5.90759 0.044616C7.82059 -0.175581 9.73175 0.426245 11.1556 1.69598C12.5812 2.96751 13.3988 4.79177 13.3988 6.69989ZM9.06384 5.61493C9.06384 6.72719 8.29311 7.66 7.25818 7.91278V12.9987H8.98084C9.28334 12.1763 9.79352 11.4153 10.4906 10.7712L10.5072 10.7556C11.6492 9.69188 12.2767 8.25332 12.2767 6.69891C12.2767 5.21017 11.6783 3.78275 10.6263 2.73798L10.4095 2.53387C9.37292 1.6103 8.07872 1.12079 6.70642 1.12079C6.4844 1.1208 6.26013 1.13303 6.03455 1.15887C3.56312 1.44324 1.51825 3.43595 1.17615 5.89325C0.915184 7.76465 1.59651 9.62226 2.99744 10.863C3.65282 11.4444 4.13954 12.1825 4.4281 12.9987H6.13611V7.91278C5.10136 7.65987 4.33044 6.72707 4.33044 5.61493C4.33068 5.30533 4.58231 5.05438 4.89197 5.05438C5.20149 5.05453 5.45228 5.30542 5.45252 5.61493C5.45252 6.30112 6.01144 6.86005 6.69763 6.86005C7.38369 6.85988 7.94177 6.30102 7.94177 5.61493C7.94201 5.30533 8.19364 5.05438 8.5033 5.05438C8.8128 5.05455 9.06361 5.30544 9.06384 5.61493Z" fill="#3A4450"/>
</svg>
